<svg width="107" height="30" viewBox="0 0 107 30" fill="none" xmlns="http://www.w3.org/2000/svg">
<path d="M9.548 5.852H7.496V16.256H9.548C11.204 16.256 12.476 15.788 13.364 14.852C14.276 13.892 14.732 12.62 14.732 11.036C14.732 9.428 14.276 8.168 13.364 7.256C12.476 6.32 11.204 5.852 9.548 5.852ZM3.896 2.504H10.628C10.7 2.504 10.772 2.504 10.844 2.504C14.804 2.504 17.744 3.728 19.664 6.176C20.72 7.52 21.248 9.14 21.248 11.036C21.248 12.932 20.72 14.54 19.664 15.86C17.72 18.332 14.708 19.568 10.628 19.568H7.46V25.292C7.46 26.588 7.856 27.44 8.648 27.848C7.736 28.88 6.632 29.396 5.336 29.396C2.984 29.396 1.808 27.968 1.808 25.112V6.572C1.808 5.348 1.4 4.52 0.584 4.088C1.472 3.032 2.576 2.504 3.896 2.504ZM29.2358 24.068C29.2358 25.244 29.9078 25.832 31.2518 25.832C32.2358 25.832 33.1238 25.376 33.9158 24.464V20.972C30.7958 21.14 29.2358 22.172 29.2358 24.068ZM39.5678 16.256V24.428C39.5678 25.94 40.2158 26.9 41.5118 27.308C41.0798 27.908 40.4918 28.412 39.7478 28.82C39.0278 29.204 38.2598 29.396 37.4438 29.396C35.6678 29.396 34.5638 28.604 34.1318 27.02C32.6438 28.604 30.7838 29.396 28.5518 29.396C26.8958 29.396 25.5758 28.988 24.5918 28.172C23.6078 27.356 23.1158 26.204 23.1158 24.716C23.1158 22.892 24.0638 21.44 25.9598 20.36C27.8798 19.256 30.5318 18.68 33.9158 18.632V15.212C33.9158 13.604 33.2678 12.8 31.9718 12.8C31.4438 12.8 30.9998 12.968 30.6398 13.304C30.3038 13.616 30.1358 14.048 30.1358 14.6C30.1358 15.128 30.3278 15.62 30.7118 16.076C29.8958 16.94 28.8638 17.372 27.6158 17.372C26.3918 17.372 25.4798 17.096 24.8798 16.544C24.3038 15.992 24.0158 15.272 24.0158 14.384C24.0158 13.04 24.8318 11.936 26.4638 11.072C28.1198 10.208 30.0398 9.776 32.2238 9.776C34.4318 9.776 36.2078 10.292 37.5518 11.324C38.8958 12.356 39.5678 14 39.5678 16.256ZM62.4759 16.256V25.292C62.4759 26.588 62.8599 27.44 63.6279 27.848C62.7639 28.88 61.6719 29.396 60.3519 29.396C57.9999 29.396 56.8239 27.968 56.8239 25.112V17.084C56.8239 16.22 56.6079 15.548 56.1759 15.068C55.7679 14.564 55.1799 14.312 54.4119 14.312C53.6439 14.312 52.8999 14.672 52.1799 15.392C51.4599 16.088 50.9439 17.132 50.6319 18.524V25.292C50.6319 26.588 51.0279 27.44 51.8199 27.848C50.9079 28.88 49.8039 29.396 48.5079 29.396C46.1559 29.396 44.9799 27.968 44.9799 25.112V13.844C44.9799 12.596 44.5719 11.756 43.7559 11.324C44.6679 10.292 45.7359 9.776 46.9599 9.776C48.1839 9.776 49.0839 10.088 49.6599 10.712C50.2359 11.312 50.5599 12.248 50.6319 13.52C51.2799 12.296 52.1679 11.372 53.2959 10.748C54.4479 10.1 55.7679 9.776 57.2559 9.776C58.7679 9.776 60.0159 10.328 60.9999 11.432C61.9839 12.536 62.4759 14.144 62.4759 16.256ZM78.4506 13.808C77.8986 13.184 77.0826 12.872 76.0026 12.872C74.9226 12.872 73.9746 13.472 73.1586 14.672C72.3666 15.848 71.9706 17.48 71.9706 19.568C71.9706 23.744 73.2546 25.832 75.8226 25.832C76.9506 25.832 77.8266 25.364 78.4506 24.428V13.808ZM84.1026 5.06V25.292C84.1026 26.588 84.4986 27.44 85.2906 27.848C84.3786 28.88 83.2746 29.396 81.9786 29.396C80.3706 29.396 79.3146 28.748 78.8106 27.452C78.2826 28.052 77.5986 28.532 76.7586 28.892C75.9426 29.228 75.1386 29.396 74.3466 29.396C71.9706 29.396 70.0026 28.568 68.4426 26.912C66.9066 25.256 66.1386 22.988 66.1386 20.108C66.1386 17.204 67.0146 14.756 68.7666 12.764C70.5186 10.772 72.8826 9.776 75.8586 9.776C76.6986 9.776 77.5626 9.872 78.4506 10.064V4.844C78.4506 3.644 78.0426 2.792 77.2266 2.288C78.1386 1.28 79.2426 0.775999 80.5386 0.775999C82.9146 0.775999 84.1026 2.204 84.1026 5.06ZM94.2397 24.068C94.2397 25.244 94.9117 25.832 96.2557 25.832C97.2397 25.832 98.1277 25.376 98.9197 24.464V20.972C95.7997 21.14 94.2397 22.172 94.2397 24.068ZM104.572 16.256V24.428C104.572 25.94 105.22 26.9 106.516 27.308C106.084 27.908 105.496 28.412 104.752 28.82C104.032 29.204 103.264 29.396 102.448 29.396C100.672 29.396 99.5677 28.604 99.1357 27.02C97.6477 28.604 95.7877 29.396 93.5557 29.396C91.8997 29.396 90.5797 28.988 89.5957 28.172C88.6117 27.356 88.1197 26.204 88.1197 24.716C88.1197 22.892 89.0677 21.44 90.9637 20.36C92.8837 19.256 95.5357 18.68 98.9197 18.632V15.212C98.9197 13.604 98.2717 12.8 96.9757 12.8C96.4477 12.8 96.0037 12.968 95.6437 13.304C95.3077 13.616 95.1397 14.048 95.1397 14.6C95.1397 15.128 95.3317 15.62 95.7157 16.076C94.8997 16.94 93.8677 17.372 92.6197 17.372C91.3957 17.372 90.4837 17.096 89.8837 16.544C89.3077 15.992 89.0197 15.272 89.0197 14.384C89.0197 13.04 89.8357 11.936 91.4677 11.072C93.1237 10.208 95.0437 9.776 97.2277 9.776C99.4357 9.776 101.212 10.292 102.556 11.324C103.9 12.356 104.572 14 104.572 16.256Z" fill="#229618"/>
</svg>
